<?xml version="1.0" standalone="no"?><!DOCTYPE svg PUBLIC "-//W3C//DTD SVG 1.1//EN" "http://www.w3.org/Graphics/SVG/1.1/DTD/svg11.dtd"><svg t="1586005400545" class="icon" viewBox="0 0 1025 1024" version="1.1" xmlns="http://www.w3.org/2000/svg" p-id="7434" xmlns:xlink="http://www.w3.org/1999/xlink" width="200.1953125" height="200"><defs><style type="text/css"></style></defs><path d="M577.261413 96.238378l0 22.317332c0 41.068271 26.930618 83.328751 64.565532 101.955864l63.992453 35.87986c18.338527 11.752212 41.230984 18.130786 64.825464 18.130786 21.031998 0 41.098972-5.065609 57.959773-14.501968l19.74871-11.127965 65.657452 110.832448-19.749734 11.188343c-38.85066 21.819981-62.32029 69.014057-55.911016 111.898784 0 0.123826 1.539126 11.252815 1.539126 29.50538 0 18.130786-1.539126 29.193256-1.539126 29.193256l0 0c-6.409274 43.19685 17.059333 90.45642 55.911016 112.331663l19.749734 11.131035-65.657452 110.831424-19.74871-11.066564c-16.92425-9.498784-36.927776-14.563369-57.959773-14.563369-23.594479 0-46.486937 6.375503-64.889935 18.069384l-63.927981 35.878836c-37.634914 18.628136-64.565532 60.885546-64.565532 101.955864l0 22.318355-131.31388 0 0-22.318355c0-41.070318-26.994066-83.327728-64.630003-101.955864l-63.86351-35.878836c-18.399928-11.693881-41.291362-18.069384-64.886865-18.069384-21.030974 0-41.095902 5.064585-57.96182 14.500944l-19.749734 11.130012-65.656428-110.831424 19.74871-11.131035c38.725811-21.875243 62.257866-69.134813 55.846545-111.955068 0-0.127919-1.476702-11.254861-1.476702-29.569851 0-18.065291 1.413254-29.131855 1.413254-29.131855l0 0c6.474769-43.258251-17.057286-90.517822-55.846545-112.394088l-19.686286-11.066564 65.656428-110.832448 19.622838 11.061447c16.925273 9.502877 36.927776 14.568486 57.96182 14.568486 23.658951 0 46.548339-6.37755 64.889935-18.130786l63.988359-35.87986c37.635937-18.628136 64.630003-60.887593 64.630003-101.955864L445.947533 96.238378 577.261413 96.238378M511.604985 704.351906c108.616883 0 196.971332-86.141955 196.971332-192.034666 0-105.892712-88.354449-192.034666-196.971332-192.034666s-196.972355 86.142978-196.972355 192.034666C314.633653 618.209952 402.989125 704.351906 511.604985 704.351906M610.092698 32.225458l-196.971332 0c-18.080641 0-32.831284 14.381212-32.831284 32.004413l0 54.324815c0 17.566917-13.462239 38.071887-29.875834 45.444138l-67.840269 38.071887c-8.077343 5.565006-19.107067 8.439611-30.13372 8.439611-8.977896 0-17.952722-2.00066-25.072205-6.000955l-48.148866-27.131195c-5.128033-2.874605-10.771838-4.252041-16.287723-4.252041-11.413482 0-22.506653 5.751257-28.59664 16.0063l-98.484643 166.277837c-8.976873 15.256181-3.591977 34.94656 12.054102 43.760719l48.14989 27.130172c15.646079 8.751734 26.354469 30.256522 23.723422 47.631048 0 0-2.112205 14.440566-2.112205 38.385033 0 24.004845 2.112205 38.38094 2.112205 38.38094 2.631046 17.441044-8.078367 38.883407-23.723422 47.694496l-48.14989 27.067747c-15.647102 8.87863-21.030974 28.506585-12.054102 43.762765l98.549114 166.277837c6.088964 10.252997 17.119711 16.0063 28.532169 16.0063 5.514862 0 11.158666-1.379483 16.287723-4.254088l48.216408-27.130172c7.052965-3.997226 16.02779-5.940577 25.133606-5.940577 10.899757 0 22.0574 2.816274 30.137813 8.442681l67.710303 38.008439c16.413595 7.375322 29.875834 27.878245 29.875834 45.443115l0 54.321745c0 17.629342 14.750643 32.008507 32.831284 32.008507l196.971332 0c18.018217 0 32.827191-14.380188 32.827191-32.008507l0-54.321745c0-17.56487 13.337389-38.067793 29.749962-45.443115l67.840269-38.008439c8.078367-5.626407 19.167445-8.442681 30.134743-8.442681 9.038274 0 18.015146 1.942328 25.133606 5.940577l48.15296 27.130172c5.131103 2.875628 10.772861 4.254088 16.350147 4.254088 11.34901 0 22.442181-5.753303 28.467697-16.0063l98.486689-166.277837c9.106839-15.255157 3.655425-34.884135-11.988607-43.762765l-48.15296-27.067747c-15.646079-8.811089-26.289997-30.253452-23.724446-47.694496 0 0 2.182817-14.376095 2.182817-38.38094 0-23.944467-2.182817-38.385033-2.182817-38.385033-2.565552-17.374526 8.078367-38.817913 23.724446-47.631048l48.216408-27.130172c15.646079-8.814159 21.031998-28.504538 11.989631-43.760719l-98.551161-166.277837c-6.025516-10.255043-17.118687-16.0063-28.467697-16.0063-5.577286 0-11.219044 1.377436-16.350147 4.315489l-48.15296 27.067747c-7.051941 4.000296-16.02779 6.000955-25.133606 6.000955-10.901804 0-22.0574-2.875628-30.134743-8.439611l-67.840269-38.071887c-16.412572-7.372251-29.749962-27.877221-29.749962-45.444138L642.922959 64.230895C642.919888 46.607693 628.110914 32.225458 610.092698 32.225458L610.092698 32.225458zM511.604985 640.337963c-72.579427 0-131.314904-57.32427-131.314904-128.021746s58.735477-128.02277 131.314904-128.02277c72.455601 0 131.314904 57.325293 131.314904 128.02277S584.060586 640.337963 511.604985 640.337963L511.604985 640.337963z" p-id="7435"></path></svg>