<?xml version="1.0" standalone="no"?><!DOCTYPE svg PUBLIC "-//W3C//DTD SVG 1.1//EN" "http://www.w3.org/Graphics/SVG/1.1/DTD/svg11.dtd"><svg t="1585834650183" class="icon" viewBox="0 0 1024 1024" version="1.1" xmlns="http://www.w3.org/2000/svg" p-id="4517" xmlns:xlink="http://www.w3.org/1999/xlink" width="200" height="200"><defs><style type="text/css"></style></defs><path d="M850.0736 940.71808 686.3872 940.71808c-12.27264 0-20.4544-8.192-20.4544-20.45952 0-12.27776 8.18176-20.46464 20.4544-20.46464l163.69152 0c34.78528 0 61.38368-26.59328 61.38368-61.37344l0-163.69152c0-12.26752 8.18176-20.4544 20.4544-20.4544s20.46464 8.18688 20.46464 20.4544l0 163.69152C952.38144 895.70816 907.3664 940.71808 850.0736 940.71808L850.0736 940.71808zM361.06752 940.71808 195.33824 940.71808c-57.2928 0-102.30272-45.00992-102.30272-102.2976l0-163.69152c0-12.26752 8.18688-20.4544 20.45952-20.4544s20.46464 8.18688 20.46464 20.4544l0 163.69152c0 34.78016 26.5984 61.37344 61.38368 61.37344l165.72928 0c12.27776 0 20.45952 8.18688 20.45952 20.46464C381.52704 932.5312 371.29728 940.71808 361.06752 940.71808L361.06752 940.71808zM113.49504 367.8208c-12.27264 0-20.45952-8.18688-20.45952-20.45952L93.03552 183.68c0-57.2928 45.01504-102.30272 102.30272-102.30272l165.72928 0c12.27776 0 20.45952 8.18688 20.45952 20.45952s-8.18176 20.46464-20.45952 20.46464L195.33824 122.30144c-34.78528 0-61.38368 26.5984-61.38368 61.38368l0 163.68128C133.95456 359.63904 125.76768 367.8208 113.49504 367.8208L113.49504 367.8208zM931.9168 367.8208c-12.27264 0-20.4544-8.18688-20.4544-20.45952L911.4624 183.68c0-34.78528-26.5984-61.38368-61.38368-61.38368l-161.6384 0c-12.27264 0-20.45952-8.18688-20.45952-20.46464s8.18688-20.45952 20.45952-20.45952l161.6384 0c57.28768 0 102.30272 45.01504 102.30272 102.30272l0 163.68128C952.38144 359.63904 944.18944 367.8208 931.9168 367.8208L931.9168 367.8208z" p-id="4518"></path><path d="M31.65184 511.04768c0-12.27264 8.18688-20.45952 20.45952-20.45952l941.18912 0c12.27264 0 20.45952 8.18688 20.45952 20.45952 0 12.27264-8.18688 20.46464-20.45952 20.46464L52.11136 531.51232C39.8336 531.51232 31.65184 523.32032 31.65184 511.04768L31.65184 511.04768z" p-id="4519"></path></svg>